<svg width="148" height="43" viewBox="0 0 148 43" fill="none" xmlns="http://www.w3.org/2000/svg">
<g clip-path="url(#clip0_260_5984)">
<path d="M106.271 10.3757C106.271 10.3757 107.77 10.0805 108.582 11.1206C109.641 12.4783 107.14 19.5657 108.582 24.644C110.077 29.915 113.955 30.7145 120.367 32.8518L114.765 33.023C111.465 33.023 106.185 32.3772 104.305 30.1977C100.406 25.6775 105.632 18.5826 102.053 18.6405C99.4303 18.6827 93.0341 25.2261 86.3344 32.784C89.33 25.4948 100.145 10.7775 106.271 10.3757ZM147.198 32.7749C147.198 32.7749 141.195 32.8551 137.364 32.5492C123.915 31.476 120.016 27.6884 116.851 22.7159C110.525 12.7743 113.609 5.53714 107.867 5.53714C96.7002 5.53714 83.8705 32.5128 83.7357 32.7848C86.1087 21.3698 100.519 0.111572 111.03 0.111572C113.355 0.111572 116.342 1.01611 119.167 6.32757C122.618 12.8156 124.202 18.6612 129.396 22.9515C134.595 27.2468 136.742 28.7161 147.198 32.7749Z" fill="#434245"/>
<path d="M143.572 40.6438C143.572 41.8311 144.576 42.1676 145.546 42.1676C146.414 42.1676 147.395 41.855 147.395 40.7587C147.395 39.879 146.437 39.7161 146.102 39.6557L145.046 39.4746C144.515 39.3845 144.341 39.1745 144.341 38.9083C144.341 38.4031 144.871 38.2038 145.342 38.2038C146.371 38.2038 146.564 38.6619 146.619 38.9992H147.257C147.196 37.9632 146.288 37.6507 145.426 37.6507C144.323 37.6507 143.705 38.1732 143.705 38.9579C143.705 39.7946 144.467 39.9988 144.98 40.084L145.956 40.2461C146.451 40.3304 146.757 40.4933 146.757 40.8852C146.757 41.3548 146.276 41.6136 145.594 41.6136C144.944 41.6136 144.221 41.4152 144.208 40.6438H143.572ZM51.194 40.294H52.6037C52.5367 41.0597 51.9282 41.6136 50.9939 41.6136C50.0968 41.6136 49.3196 41.144 49.3196 39.9277C49.3196 39.0116 49.8248 38.2038 50.9641 38.2038C51.7785 38.2038 52.2233 38.518 52.4218 39.1142H53.0965C52.8261 37.9268 51.8199 37.6507 50.9343 37.6507C49.8198 37.6507 48.6821 38.3179 48.6821 39.9807C48.6821 40.9274 49.2294 42.1676 50.9525 42.1676C51.862 42.1676 52.3201 41.7765 52.6037 41.4449L52.7112 42.0593H53.1692V39.7409H51.194V40.294ZM61.6449 40.4338C61.6449 41.5839 62.2824 42.1676 63.5904 42.1676C64.8976 42.1676 65.5367 41.5839 65.5367 40.4338V37.759H64.8976V40.5123C64.8976 41.2887 64.38 41.6136 63.5904 41.6136C62.8016 41.6136 62.2824 41.2887 62.2824 40.5123V37.759H61.6449V40.4338ZM75.1146 40.6438C75.1146 41.8311 76.12 42.1676 77.0898 42.1676C77.958 42.1676 78.9386 41.855 78.9386 40.7587C78.9386 39.879 77.982 39.7161 77.6446 39.6557L76.5904 39.4746C76.0604 39.3845 75.8843 39.1745 75.8843 38.9083C75.8843 38.4031 76.4151 38.2038 76.8856 38.2038C77.915 38.2038 78.1085 38.6619 78.163 38.9992H78.8005C78.741 37.9632 77.8315 37.6507 76.9699 37.6507C75.867 37.6507 75.2469 38.1732 75.2469 38.9579C75.2469 39.7946 76.0108 39.9988 76.5235 40.084L77.4999 40.2461C77.9935 40.3304 78.3011 40.4933 78.3011 40.8852C78.3011 41.3548 77.8199 41.6136 77.1386 41.6136C76.4871 41.6136 75.7644 41.4152 75.752 40.6438H75.1146ZM114.077 40.294H115.487C115.421 41.0597 114.812 41.6136 113.878 41.6136C112.98 41.6136 112.204 41.144 112.204 39.9277C112.204 39.0116 112.709 38.2038 113.848 38.2038C114.661 38.2038 115.108 38.518 115.306 39.1142H115.981C115.71 37.9268 114.703 37.6507 113.818 37.6507C112.703 37.6507 111.566 38.3179 111.566 39.9807C111.566 40.9274 112.113 42.1676 113.837 42.1676C114.746 42.1676 115.204 41.7765 115.487 41.4449L115.595 42.0593H116.052V39.7409H114.077V40.294ZM86.4932 40.6438C86.4932 41.8311 87.4994 42.1676 88.4701 42.1676C89.3366 42.1676 90.3189 41.855 90.3189 40.7587C90.3189 39.879 89.3614 39.7161 89.0233 39.6557L87.9691 39.4746C87.4391 39.3845 87.2638 39.1745 87.2638 38.9083C87.2638 38.4031 87.7938 38.2038 88.2651 38.2038C89.2945 38.2038 89.4879 38.6619 89.5417 38.9992H90.1791C90.1196 37.9632 89.2101 37.6507 88.3486 37.6507C87.2456 37.6507 86.6263 38.1732 86.6263 38.9579C86.6263 39.7946 87.3903 39.9988 87.9021 40.084L88.8786 40.2461C89.373 40.3304 89.6797 40.4933 89.6797 40.8852C89.6797 41.3548 89.1985 41.6136 88.5172 41.6136C87.8665 41.6136 87.1439 41.4152 87.1323 40.6438H86.4932ZM26.9898 42.0593H30.5062V41.5053H27.6272V40.1138H30.3623V39.5598H27.6272V38.313H30.4467V37.759H26.9898V42.0593ZM136.787 42.0593H137.528V37.759H136.89V41.1804H136.879L134.113 37.759H133.372V42.0593H134.009V38.6379H134.023L136.787 42.0593ZM34.9652 42.0593H35.6928L33.7481 37.759H33.0197L31.0742 42.0593H31.7605L32.3087 40.8066H34.417L34.9652 42.0593ZM39.669 42.0593H40.5487L38.3915 39.5416L40.4338 37.759H39.5309L37.1273 39.9211V37.759H36.489V42.0593H37.1273V40.6553L37.9103 39.9625L39.669 42.0593ZM123.896 42.0593H124.535V40.2337H126.203C126.734 40.2337 126.992 40.4685 127.034 41.2399C127.064 41.7583 127.064 41.9394 127.168 42.0593H127.841C127.697 41.8906 127.673 41.6913 127.636 40.8902C127.613 40.385 127.39 40.0294 127.01 39.9757V39.9625C127.48 39.8128 127.733 39.4275 127.733 38.9033C127.733 38.3543 127.421 37.759 126.559 37.759H123.896V42.0593ZM41.4226 42.0593H42.0601V37.759H41.4226V42.0593ZM46.8135 42.0593H47.5543V37.759H46.9168V41.1804H46.9044L44.1396 37.759H43.3987V42.0593H44.0362V38.6379H44.0486L46.8135 42.0593ZM101.187 42.0593H101.824V38.313H103.45V37.759H99.5602V38.313H101.187V42.0593ZM120.806 42.0593H121.444V38.313H123.071V37.759H119.179V38.313H120.806V42.0593ZM17.068 42.0593H19.6096C20.5439 42.0593 20.9714 41.4334 20.9714 40.8182C20.9714 40.1973 20.6522 39.8723 20.1578 39.7591V39.7458C20.5075 39.621 20.7837 39.3614 20.7837 38.8363C20.7837 38.1617 20.3752 37.759 19.4591 37.759H17.068V42.0593ZM56.7775 42.0593H57.4166V40.2337H59.0843C59.6142 40.2337 59.8739 40.4685 59.916 41.2399C59.9458 41.7583 59.9458 41.9394 60.0492 42.0593H60.723C60.5783 41.8906 60.5543 41.6913 60.518 40.8902C60.4948 40.385 60.2716 40.0294 59.8921 39.9757V39.9625C60.3617 39.8128 60.6147 39.4275 60.6147 38.9033C60.6147 38.3543 60.3013 37.759 59.4406 37.759H56.7775V42.0593ZM138.812 42.0593H141.027C142.348 42.0593 142.872 41.0472 142.872 39.8492C142.872 38.6015 142.282 37.759 140.992 37.759H138.812V42.0593ZM104.306 42.0593H104.944V37.759H104.306V42.0593ZM66.8075 42.0593H70.0594V41.5053H67.4459V37.759H66.8075V42.0593ZM70.9094 42.0593H74.4267V41.5053H71.5477V40.1138H74.2828V39.5598H71.5477V38.313H74.3671V37.759H70.9094V42.0593ZM22.1099 42.0593H22.7474V40.2337H24.4167C24.9475 40.2337 25.2063 40.4685 25.2493 41.2399C25.2791 41.7583 25.2791 41.9394 25.3808 42.0593H26.0555C25.9108 41.8906 25.8868 41.6913 25.8504 40.8902C25.8256 40.385 25.604 40.0294 25.2245 39.9757V39.9625C25.6941 39.8128 25.9471 39.4275 25.9471 38.9033C25.9471 38.3543 25.6338 37.759 24.7731 37.759H22.1099V42.0593ZM128.776 42.0593H132.294V41.5053H129.414V40.1138H132.149V39.5598H129.414V38.313H132.233V37.759H128.776V42.0593ZM82.3434 42.0593H83.0892V41.3614H82.3434V42.0593ZM109.698 42.0593H110.439V37.759H109.801V41.1804H109.788L107.022 37.759H106.283V42.0593H106.921V38.6379H106.932L109.698 42.0593ZM91.2102 42.0593H94.7275V41.5053H91.8485V40.1138H94.5828V39.5598H91.8485V38.313H94.6679V37.759H91.2102V42.0593ZM96.9516 42.0593H97.5891V38.313H99.2154V37.759H95.3244V38.313H96.9516V42.0593ZM17.7054 41.5053V40.089H19.4897C20.1404 40.089 20.3331 40.4387 20.3331 40.7769C20.3331 41.144 20.1462 41.5053 19.436 41.5053H17.7054ZM139.45 41.5053V38.313H140.879C141.987 38.313 142.233 39.1017 142.233 39.8608C142.233 40.6256 142.047 41.5053 140.998 41.5053H139.45ZM34.1822 40.2527H32.5501L33.3562 38.3485L34.1822 40.2527ZM57.4166 39.6797V38.313H59.2174C59.7292 38.313 59.9772 38.59 59.9772 38.9992C59.9772 39.301 59.8259 39.6797 59.1992 39.6797H57.4166ZM124.535 39.6797V38.313H126.336C126.848 38.313 127.096 38.59 127.096 38.9992C127.096 39.301 126.944 39.6797 126.318 39.6797H124.535ZM22.7474 39.6797V38.313H24.5498C25.0616 38.313 25.3097 38.59 25.3097 38.9992C25.3097 39.301 25.1584 39.6797 24.5316 39.6797H22.7474ZM17.7054 39.5358V38.313H19.4112C19.9354 38.313 20.1462 38.5412 20.1462 38.9331C20.1462 39.2762 19.9172 39.5358 19.4475 39.5358H17.7054ZM30.9568 0.539067L25.7661 8.94778C25.7644 8.94861 21.3319 16.3842 21.3319 16.3842C21.2211 16.5743 21.1152 16.7645 21.002 16.9671C20.8225 17.2887 20.6365 17.6219 20.4191 17.975L20.3198 18.1354H20.3347L18.3818 21.4327L17.3218 23.2186L9.73659 23.2401C10.8652 21.3335 12.0384 19.3533 12.0384 19.3533C12.2972 18.9613 12.6023 18.4818 12.9264 17.9683H12.9306L13.1265 17.6533H13.1199C13.597 16.8554 15.0646 14.4048 15.0646 14.4048L22.9078 1.36836C23.0731 1.04177 23.0847 0.773882 22.9458 0.563871C22.6109 0.0578599 21.5071 0.125659 21.46 0.128966C20.8093 0.200072 20.5778 0.606866 20.5497 0.660609L15.3614 8.94447C15.3598 8.9453 10.9272 16.2758 10.9272 16.2758C10.8164 16.4627 10.7098 16.6512 10.599 16.8497C10.4179 17.1672 10.2319 17.4962 10.0144 17.8435L9.91436 18.0039H9.92924L7.97713 21.2516L0.133129 34.2864C-0.0314071 34.613 -0.0429825 34.8817 0.0959225 35.0917C0.430783 35.5977 1.53458 35.5299 1.58171 35.5266C2.22828 35.4563 2.46062 35.0537 2.49121 34.9966L7.68113 26.7127C7.68113 26.7127 7.88039 26.3746 8.18466 25.8611C10.4576 25.8628 14.3767 25.8644 15.7566 25.8586L10.5378 34.6551C10.3724 34.9875 10.3617 35.262 10.5039 35.4753C10.842 35.9838 11.9409 35.9144 11.9872 35.9111C12.6693 35.8358 12.8917 35.386 12.9008 35.367L12.895 35.3769L18.0874 26.9699C18.0874 26.9699 18.3016 26.6028 18.6232 26.0505C19.1482 26.0066 21.742 25.7867 22.0818 25.7024C22.4605 25.6065 22.4233 25.8884 22.4233 25.8884C22.0942 26.8508 22.1165 27.5445 22.1165 27.5445C22.0371 30.9733 23.0062 32.1954 24.5705 32.7055C26.1357 33.2148 27.4437 32.4227 27.829 32.1921C28.2143 31.9614 29.1626 31.1147 29.3172 30.9609C29.3892 30.7575 29.6736 30.6715 29.5992 30.9733C29.4297 31.7828 29.7538 32.2913 29.7538 32.2913C29.7538 32.2913 30.4037 33.2909 31.7547 32.7824C34.1682 31.877 37.5771 29.2668 37.5771 29.2668C37.5771 29.2668 38.671 28.3498 38.9248 28.096C39.1787 27.8413 39.1679 28.1382 39.1679 28.1382C39.1679 28.1382 39.215 28.4019 38.2336 30.1779C37.2547 31.9539 37.7061 32.3715 37.7061 32.3715C38.5164 33.1818 39.1828 32.7824 39.9939 32.2036C40.8042 31.6257 42.3842 29.877 42.3842 29.877C43.0912 29.1717 47.4262 24.8359 47.4262 24.8359C47.4262 24.8359 50.1191 22.5291 50.4449 22.2794C50.7715 22.0305 50.6367 22.4687 50.6367 22.4687C50.6367 22.4687 48.4812 26.702 47.7883 28.0877C47.0954 29.4735 46.2471 30.8617 46.5828 32.0126C46.9185 33.1627 48.6358 32.7055 48.6358 32.7055C51.9604 31.7067 55.8431 28.2299 57.1694 27.1319C58.4964 26.0339 60.9347 23.4038 60.9347 23.4038C61.1604 23.0251 61.3448 23.4336 61.3448 23.4336C61.3448 23.4336 61.9318 24.2116 61.6681 26.0207C61.4035 27.8306 60.8975 28.6004 60.5907 29.1394C60.2823 29.6785 59.2802 30.4987 58.3591 30.4987C57.4364 30.4987 57.1528 30.2681 56.2012 30.2681C55.2487 30.2681 55.1594 30.45 55.1594 30.45C55.1594 30.45 54.4392 30.9576 54.8443 31.6538C55.2487 32.3491 55.9209 32.5319 56.7088 32.7055C57.4976 32.8783 58.2814 32.7311 58.2814 32.7311C59.2199 32.7311 61.0265 31.9366 61.0265 31.9366C63.0894 31.9366 64.3767 31.3198 64.3767 31.3198C64.3767 31.3198 66.132 30.5765 66.2213 30.5302C66.3106 30.4855 66.3892 30.6161 66.3892 30.6161L66.8497 31.5504C66.8497 31.5504 67.5517 32.956 69.918 32.956C72.2827 32.956 74.7772 31.5504 74.7772 31.5504C74.931 31.4735 76.3325 30.5219 78.0101 29.2932C79.6869 28.0654 79.7348 27.7826 79.7348 27.7826C79.7348 27.7826 79.9961 26.4821 79.6521 26.1381C79.3073 25.7933 79.0758 25.7346 78.5492 26.1125C78.0208 26.4895 75.3825 28.4697 75.3825 28.4697C72.4828 30.3623 70.7267 30.7815 69.7733 30.7815C68.8208 30.7815 68.7489 30.3193 68.5951 29.9597C68.4405 29.6016 68.4918 29.4735 68.5951 29.3445C68.6968 29.2163 69.159 29.1138 69.159 29.1138C72.1951 28.0472 75.065 26.2026 75.065 26.2026C76.6888 25.0839 77.3428 24.1099 77.6512 23.47C77.9596 22.8275 78.1126 22.0073 78.1126 22.0073C78.1126 22.0073 78.2341 20.5761 78.0465 20.0627C77.8571 19.5509 77.4247 18.9241 77.0336 18.7026C76.6417 18.481 76.1869 18.2346 75.3295 18.2346C74.473 18.2346 73.4543 18.562 73.4543 18.562C73.4543 18.562 71.4162 19.5186 69.6981 21.2367C67.98 22.9557 67.3698 24.1471 66.7216 25.4452C66.0725 26.7425 66.0808 28.2672 66.0808 28.2672L65.927 28.4466C65.0944 29.0311 64.0361 29.3966 63.3589 29.6678C62.6809 29.9373 63.1555 29.3445 63.1555 29.3445C63.7136 28.2556 63.8227 27.7033 63.8227 27.7033C64.2692 26.21 64.0427 24.8301 63.5143 23.0847C62.8835 21.2425 63.8227 20.1594 63.8227 20.1594C63.8227 20.1594 64.3254 19.3996 64.3254 18.686C64.3254 17.0349 63.2845 17.0547 63.2845 17.0547C61.1587 16.9323 61.5143 18.9556 61.5143 18.9556L61.4366 19.4417C61.0455 20.1197 59.0256 22.2893 57.5125 23.8288C55.9978 25.3675 51.3544 29.2163 50.3804 29.9084C49.4047 30.6013 49.5585 30.0886 49.5585 30.0886L49.9182 29.1907C49.9182 29.1907 53.1758 22.1099 53.767 20.8018C54.3565 19.4938 54.2019 18.9283 54.2019 18.9283C53.6182 17.8187 53.3685 18.0816 52.3035 18.1577C51.2386 18.2346 48.2786 20.9077 48.2786 20.9077C48.2786 20.9077 43.2144 25.7867 42.734 26.2663C42.2544 26.7442 42.452 26.1885 42.452 26.1885C42.452 26.1885 44.7878 21.436 45.2492 20.3901C45.7089 19.345 45.5559 18.9539 45.5559 18.9539C45.4104 18.519 44.3802 18.4512 43.684 18.7232C42.9878 18.9952 42.1056 21.35 41.8625 22.0073C41.6186 22.6638 40.8918 23.3509 40.8918 23.3509C40.4842 23.8338 38.3031 25.857 38.3031 25.857C35.3976 29.0344 32.9602 29.8836 32.9602 29.8836C32.3698 30.2168 32.627 29.6529 32.627 29.6529L35.9103 23.059C36.5254 22.1148 36.193 21.8015 36.193 21.8015C34.6618 20.8986 33.5505 22.2893 33.5505 22.2893C32.5732 24.3249 28.4789 28.8567 28.4789 28.8567C28.4789 28.8567 26.9071 30.8286 25.5114 30.4872C24.1157 30.144 24.592 27.0782 24.592 27.0782C24.592 27.0782 24.4076 24.6763 29.342 21.8792C34.2773 19.0812 36.2187 21.2119 36.2187 21.2119C36.7801 21.4005 37.1414 21.2119 37.1414 21.2119C37.5697 20.5836 37.6549 20.2628 37.6036 19.6716C37.5515 19.0821 36.2435 18.4661 36.2435 18.4661C33.5381 17.6641 31.1123 18.5686 31.1123 18.5686C26.7384 19.9841 24.5961 22.367 24.5961 22.367C23.2319 23.1062 20.7622 23.2897 20.2157 23.3228C21.3219 21.4286 22.4456 19.5054 22.4456 19.5054C22.7044 19.1052 23.0103 18.6199 23.3328 18.1006H23.3369L23.532 17.7815H23.5246C24.0016 16.9745 25.4701 14.4841 25.4701 14.4841L33.3141 1.26005C33.4811 0.926843 33.491 0.653994 33.348 0.440676C33.0106 -0.0678161 31.9118 0.00163642 31.8647 0.00494368C31.2297 0.0743962 30.9932 0.469614 30.9568 0.539067ZM68.4736 27.1386C68.4736 27.1386 69.0507 25.1666 71.2393 22.978C73.427 20.7886 74.6482 20.4571 75.4552 20.8481C76.2614 21.2401 75.4875 22.4116 75.4875 22.4116C75.4875 22.4116 74.8335 23.5097 73.4791 24.3365C72.1264 25.1625 69.5278 26.6077 69.5278 26.6077L68.4736 27.1386Z" fill="#434245"/>
</g>
<defs>
<clipPath id="clip0_260_5984">
<rect width="148" height="42.1676" fill="white"/>
</clipPath>
</defs>
</svg>
