<svg width="92" height="37" viewBox="0 0 92 37" fill="none" xmlns="http://www.w3.org/2000/svg">
<g clip-path="url(#clip0_260_6014)">
<path d="M53.1316 26.8867V10.1133H55.1902C60.7778 10.1133 64.4049 12.6293 64.4049 18.4507V18.5493C64.4049 24.3213 60.7778 26.8867 55.1902 26.8867H53.1316ZM40.878 37H54.455C69.2573 37 76.6585 29.2547 76.6585 18.3027V18.204C76.7075 7.252 69.4044 0 54.8961 0H40.878V37Z" fill="#434245"/>
<path d="M7.64624 25.5053H26.8599V12.7773H7.64624V25.5053Z" fill="#92939C"/>
<path d="M80.5306 37H92V0H80.5306V37Z" fill="#434245"/>
<path d="M0 37H11.5184V0H0V37Z" fill="#434245"/>
<path d="M24.2621 37H35.7805V0H24.2621V37Z" fill="#434245"/>
</g>
<defs>
<clipPath id="clip0_260_6014">
<rect width="92" height="37" fill="white"/>
</clipPath>
</defs>
</svg>
