<svg width="67" height="55" viewBox="0 0 67 55" fill="none" xmlns="http://www.w3.org/2000/svg">
<g clip-path="url(#clip0_260_5965)">
<path d="M0 55H67V0H0V55Z" fill="#434245"/>
<path d="M0 55H67V0H0V55Z" fill="#434245"/>
<path d="M39.088 42.0322H38.326V38.5924H38.9679C40.0838 38.5924 40.7616 39.1378 40.7616 40.3046C40.7616 41.4095 40.2096 42.0322 39.088 42.0322ZM39.3036 37.1452H36.4845V47.5265H38.3379V43.4793H39.3941C41.3438 43.4793 42.6754 42.3585 42.6754 40.3046C42.6754 38.1728 41.2954 37.1452 39.3036 37.1452Z" fill="white"/>
<path d="M43.3945 38.6869H45.4165V47.5265H47.2818V38.6869H49.3811V37.1452H43.3945" fill="white"/>
<path d="M50.9052 47.5265H52.7887V37.1452H50.9052V47.5265Z" fill="white"/>
<path d="M54.7924 47.5265H56.676V42.6082L59.6931 47.5265H61.9609L58.2836 42.0175L61.6666 37.1452H59.5077L56.676 41.6439V37.1452H54.7924" fill="white"/>
<path d="M10.8157 47.5265H16.2684V46.032H12.6691V42.9046H15.9025V41.4261H12.6691V38.6403H16.1125V37.1452H10.8157" fill="white"/>
<path d="M4.99695 47.4492C5.38109 47.5731 5.82495 47.6976 6.20847 47.6976C8.32595 47.6976 8.81194 46.2032 8.81194 44.3671V37.1452H6.92833V44.3984C6.92833 45.2388 6.85666 46.0953 5.8545 46.0953C5.61497 46.0953 5.36914 46.0014 5.09314 45.8922" fill="white"/>
<path d="M63.0768 17.8171L63.029 17.2027C53.9348 13.3299 44.0069 11.1808 33.527 11.1808C23.0773 11.1808 13.0475 13.3497 3.96522 17.2027L3.9231 17.8171C13.2393 14.8684 23.2571 13.2545 33.527 13.2545C43.8271 13.2545 53.7431 14.8537 63.0768 17.8171Z" fill="white"/>
<path d="M18.0859 47.5265H19.7118V39.3562L22.8308 47.5265H25.2846V37.1452H23.6468V45.3321L20.5335 37.1452H18.0859" fill="white"/>
<path d="M30.8694 46.2671C29.1839 46.2671 28.8482 44.1813 28.8482 42.3451C28.8482 40.7428 29.1116 38.4232 30.8694 38.4232C32.7229 38.4232 32.909 40.7102 32.909 42.3451C32.909 43.9328 32.6933 46.2671 30.8694 46.2671ZM30.8694 36.9913C27.978 36.9913 26.9161 39.7925 26.9161 42.3451C26.9161 44.9438 27.8221 47.699 30.8694 47.699C33.7967 47.699 34.8529 44.9438 34.8529 42.3451C34.8529 39.7612 33.9646 36.9913 30.8694 36.9913Z" fill="white"/>
</g>
<defs>
<clipPath id="clip0_260_5965">
<rect width="67" height="55" fill="white"/>
</clipPath>
</defs>
</svg>
