<svg width="117" height="44" viewBox="0 0 117 44" fill="none" xmlns="http://www.w3.org/2000/svg">
<g clip-path="url(#clip0_260_5989)">
<path fill-rule="evenodd" clip-rule="evenodd" d="M62.1721 15.9717L71.9619 10.399L78.4361 9.55127L85.1319 9.91383L74.4705 12.2558L66.4451 17.0735L62.1721 15.9717Z" fill="#434245"/>
<path fill-rule="evenodd" clip-rule="evenodd" d="M54.4038 12.0954L59.0565 11.0048L67.431 12.0144L61.1196 12.9038L55.0697 12.5976L54.4038 12.0954Z" fill="#434245"/>
<path fill-rule="evenodd" clip-rule="evenodd" d="M98.0588 12.6604L99.1098 13.3474L108.74 12.9837L114 13.5492L106.959 11.7722L100.889 11.6514L98.0588 12.6604Z" fill="#434245"/>
<path fill-rule="evenodd" clip-rule="evenodd" d="M90.9779 3.81655L92.7582 3.25159L94.2159 4.62439L93.4465 6.199L92.0688 6.36092L90.9779 5.51319V3.81655Z" fill="#434245"/>
<path fill-rule="evenodd" clip-rule="evenodd" d="M69.4943 17.8697L65.6086 16.86L73.2166 11.6105L85.1124 9.91449L93.1629 11.5302L98.8677 13.9924L104.005 17.7078L94.3367 14.3162L78.8409 12.8631L73.4176 14.7199L69.4943 17.8697Z" fill="#434245"/>
<path fill-rule="evenodd" clip-rule="evenodd" d="M78.723 0.246155L77.2518 1.61837H77.8425V2.57405L78.2557 2.22967L78.2563 1.62189H80.1977L79.9879 1.39133L78.6419 1.03405L78.723 0.246155Z" fill="#434245"/>
<path fill-rule="evenodd" clip-rule="evenodd" d="M77.7703 2.61005H78.2735L77.9872 3.09346L81.3428 3.56279L81.9599 4.09901H76.9287L76.7811 6.39111L76.1516 6.80413V4.09901H75.444L77.7703 2.61005Z" fill="#434245"/>
<path fill-rule="evenodd" clip-rule="evenodd" d="M77.1232 4.88873H77.6798L77.5012 5.94767L77.0868 5.67839L77.1232 4.88873Z" fill="#434245"/>
<path fill-rule="evenodd" clip-rule="evenodd" d="M78.496 4.99713H79.0538L78.9733 5.92172L78.3984 5.88534L78.496 4.99713Z" fill="#434245"/>
<path fill-rule="evenodd" clip-rule="evenodd" d="M79.8667 4.9798L79.9743 6.10444L80.438 5.84572L80.4239 4.9798H79.8667Z" fill="#434245"/>
<path fill-rule="evenodd" clip-rule="evenodd" d="M76.3663 6.83978H78.2148L77.6095 9.44224L76.7713 10.1967L77.0135 7.1161L76.3663 6.83978Z" fill="#434245"/>
<path fill-rule="evenodd" clip-rule="evenodd" d="M79.699 6.86255H81.2007L80.3696 7.17407L81.1837 10.088L79.8553 8.66831L79.699 6.86255Z" fill="#434245"/>
<path fill-rule="evenodd" clip-rule="evenodd" d="M4.21661 18.0003H6.65641L3.2756 35.6625H11.2709L10.8595 37.7757H0.454346L4.21661 18.0003Z" fill="#434245"/>
<path fill-rule="evenodd" clip-rule="evenodd" d="M22.5018 37.7751C22.5018 36.9244 22.6482 35.5757 22.8251 34.1073H22.7663C21.237 37.0717 19.268 38.0978 17.2396 38.0978C14.7122 38.0978 13.1541 36.1025 13.1541 33.4033C13.1541 28.4459 16.7994 23.2527 23.0014 23.2527C24.3827 23.2527 25.8527 23.4862 26.8518 23.7807L25.3819 31.2038C24.9116 33.6673 24.7359 36.1911 24.7941 37.7751H22.5018ZM24.0888 25.3935C23.7655 25.2767 23.2371 25.1887 22.4131 25.1887C18.7096 25.1887 15.682 29.0033 15.682 32.9638C15.682 34.5478 16.2404 36.1025 18.1218 36.1025C20.1502 36.1025 22.5606 33.4625 23.2653 29.6785L24.0888 25.3935Z" fill="#434245"/>
<path fill-rule="evenodd" clip-rule="evenodd" d="M28.235 37.7755L30.117 27.7119C30.4397 26.1279 30.646 24.7486 30.7917 23.5759H32.9671L32.615 26.3625H32.6738C33.9375 24.3673 35.8777 23.252 37.9354 23.252C39.6393 23.252 41.5513 24.22 41.5513 27.1839C41.5513 27.8298 41.432 28.7092 41.2868 29.4724L39.6981 37.7755H37.2889L38.8464 29.5604C38.9346 29.0037 39.0228 28.3578 39.0228 27.7406C39.0228 26.3332 38.465 25.2766 36.7893 25.2766C35.0548 25.2766 32.585 27.3599 31.9379 30.8804L30.646 37.7755H28.235Z" fill="#434245"/>
<path fill-rule="evenodd" clip-rule="evenodd" d="M43.8455 41.0025C44.6971 41.5599 46.1377 41.9412 47.6083 41.9412C50.0181 41.9412 51.8996 40.7385 52.723 36.8953L53.1926 34.754H53.1339C51.8696 36.778 50.1357 37.7753 48.1961 37.7753C45.3155 37.7753 43.8455 35.3694 43.8455 32.8461C43.8455 28.0349 47.3732 23.2518 52.8705 23.2518C54.5157 23.2518 56.3389 23.7217 57.4551 24.2497L55.2504 35.986C54.6914 39.0073 53.8697 41.0612 52.3992 42.3525C50.9597 43.5557 49.0477 43.9077 47.432 43.9077C45.6981 43.9077 44.0512 43.4965 43.1689 42.9098L43.8455 41.0025ZM54.7802 25.687C54.3094 25.4823 53.4277 25.2177 52.4285 25.2177C48.872 25.2177 46.4022 28.9436 46.4022 32.4355C46.3728 34.02 46.9618 35.8387 49.1365 35.8387C51.2242 35.8387 53.3396 33.1981 53.8697 30.4402L54.7802 25.687Z" fill="#434245"/>
<path fill-rule="evenodd" clip-rule="evenodd" d="M69.1547 36.9834C68.0985 37.5695 66.3629 38.0975 64.4521 38.0975C60.6892 38.0975 59.0441 35.5162 59.0441 32.3775C59.0441 28.0931 62.218 23.2519 66.8043 23.2519C69.5086 23.2519 70.978 24.8664 70.978 26.9197C70.978 30.6457 66.7749 31.6142 61.5127 31.5262C61.3957 32.1417 61.4833 33.4628 61.8077 34.2255C62.3649 35.5162 63.5116 36.1327 64.9822 36.1327C66.6568 36.1327 67.9216 35.6335 68.8027 35.1636L69.1547 36.9834ZM66.451 25.1591C64.1288 25.1591 62.3949 27.4184 61.7777 29.6477C65.6288 29.7064 68.6258 29.179 68.6258 26.9485C68.6258 25.8051 67.7447 25.1591 66.451 25.1591Z" fill="#434245"/>
<path fill-rule="evenodd" clip-rule="evenodd" d="M85.6771 29.1497C85.6771 33.5509 82.5608 38.0982 77.7694 38.0982C74.2134 38.0982 72.2139 35.457 72.2139 32.2591C72.2139 27.5651 75.4771 23.2526 80.0911 23.2526C83.9427 23.2526 85.6771 26.1571 85.6771 29.1497ZM74.7424 32.1717C74.7424 34.4896 76.0355 36.1616 78.0927 36.1616C80.9745 36.1616 83.148 32.4644 83.148 29.1497C83.148 27.5059 82.3839 25.1891 79.8277 25.1891C76.7696 25.1891 74.7424 28.9145 74.7424 32.1717Z" fill="#434245"/>
<path fill-rule="evenodd" clip-rule="evenodd" d="M100.904 29.1497C100.904 33.5509 97.7887 38.0982 92.9979 38.0982C89.4407 38.0982 87.4412 35.457 87.4412 32.2591C87.4412 27.5651 90.705 23.2526 95.3195 23.2526C99.1705 23.2526 100.904 26.1571 100.904 29.1497ZM89.9709 32.1717C89.9709 34.4896 91.2628 36.1616 93.3194 36.1616C96.2018 36.1616 98.3759 32.4644 98.3759 29.1497C98.3759 27.5059 97.6118 25.1891 95.055 25.1891C91.9975 25.1891 89.9709 28.9145 89.9709 32.1717Z" fill="#434245"/>
<path fill-rule="evenodd" clip-rule="evenodd" d="M102.61 41.0025C103.462 41.5599 104.903 41.9412 106.371 41.9412C108.782 41.9412 110.664 40.7385 111.488 36.8953L111.957 34.754H111.898C110.634 36.778 108.9 37.7753 106.961 37.7753C104.079 37.7753 102.61 35.3694 102.61 32.8461C102.61 28.0349 106.137 23.2518 111.633 23.2518C113.28 23.2518 115.102 23.7217 116.22 24.2497L114.015 35.986C113.456 39.0073 112.634 41.0612 111.163 42.3525C109.723 43.5557 107.813 43.9077 106.196 43.9077C104.462 43.9077 102.816 43.4965 101.934 42.9098L102.61 41.0025ZM113.546 25.687C113.074 25.4823 112.192 25.2177 111.193 25.2177C107.636 25.2177 105.168 28.9436 105.168 32.4355C105.138 34.02 105.726 35.8387 107.902 35.8387C109.988 35.8387 112.104 33.1981 112.634 30.4402L113.546 25.687Z" fill="#434245"/>
</g>
<defs>
<clipPath id="clip0_260_5989">
<rect width="117" height="44" fill="white"/>
</clipPath>
</defs>
</svg>
