<svg width="138" height="46" viewBox="0 0 138 46" fill="none" xmlns="http://www.w3.org/2000/svg">
<g clip-path="url(#clip0_260_5977)">
<mask id="mask0_260_5977" style="mask-type:luminance" maskUnits="userSpaceOnUse" x="0" y="0" width="138" height="46">
<path d="M0 0H138V46H0V0Z" fill="white"/>
</mask>
<g mask="url(#mask0_260_5977)">
<path d="M42.9379 39.836V37.385H37.8227C36.6635 37.385 36.2664 36.8223 36.2664 35.7183V19.688H33.3776V35.88C33.3776 37.9999 34.5659 39.8399 37.3113 39.8399L42.9379 39.836ZM62.6366 19.5999H59.583V22.6543H62.6366V19.5999ZM97.0308 19.5999H93.9764V22.6543H97.0308V19.5999ZM53.7571 31.497H47.3171C47.2926 30.8269 47.4183 30.1592 47.6851 29.5435C47.9243 28.9885 48.3245 28.5185 48.8351 28.1957C49.3449 27.8722 49.9414 27.7112 50.5448 27.7327C51.1451 27.7097 51.7377 27.8707 52.2437 28.1942C52.7497 28.5185 53.1438 28.9885 53.3745 29.5435C53.6452 30.1584 53.7763 30.8254 53.7579 31.497H53.7571ZM56.6168 33.5064V32.2338C56.6168 28.1551 54.3827 25.3261 50.534 25.3261C46.854 25.3261 44.4467 28.0156 44.4467 32.6562C44.4467 38.1172 47.3064 40.0162 50.902 40.0162C53.419 40.0162 54.8059 39.2549 56.2779 37.7829L54.4379 36.0571C53.4182 37.0768 52.5688 37.5291 50.9572 37.5291C48.6089 37.5291 47.3064 35.9728 47.3064 33.5103L56.6168 33.5064ZM62.5523 25.4879H59.6673V39.836H62.5523V25.4879ZM75.1862 32.6485C75.1862 35.1954 74.8182 37.4325 72.2161 37.4325C69.6148 37.4325 69.2169 35.1954 69.2169 32.6485C69.2169 30.1024 69.611 27.8944 72.2161 27.8944C74.822 27.8944 75.1862 30.1024 75.1862 32.6485ZM78.075 32.6485C78.075 30.4704 77.9056 28.034 76.4589 26.5919C75.5005 25.7271 74.2424 25.2701 72.9521 25.3184C71.3958 25.3184 70.2366 25.7156 69.1579 27.0143V25.4871H66.3289V45.6397H69.2169V38.364C70.2619 39.6122 71.451 40.0055 72.9813 40.0055C74.2631 40.0553 75.5128 39.5984 76.4596 38.7328C77.9056 37.2899 78.075 34.8274 78.075 32.6485ZM90.9067 39.836V37.26H83.7161L90.9067 27.7802V25.4879H80.6027V28.0639H87.3409L80.2094 37.5429V39.8353L90.9067 39.836ZM96.9496 25.4879H94.0608V39.836H96.9496V25.4879ZM108.542 32.3955C108.542 34.658 108.233 36.8959 105.627 36.8959C103.022 36.8959 102.683 34.658 102.683 32.3955C102.683 30.1316 103.025 27.8952 105.627 27.8952C108.229 27.8952 108.542 30.1285 108.542 32.3955ZM111.43 39.7555V25.4879H108.626V27.0189C107.552 25.7156 106.393 25.3184 104.862 25.3184C104.233 25.2893 103.605 25.3851 103.013 25.599C102.421 25.8129 101.878 26.1418 101.413 26.5658C100.026 27.9496 99.8016 29.9591 99.8016 32.3948C99.8016 34.8312 100.026 36.8368 101.413 38.2245C101.872 38.6515 102.411 38.9843 102.999 39.2028C103.587 39.4213 104.213 39.5217 104.839 39.4979C106.311 39.4979 107.5 39.1 108.545 37.8565V39.6965C108.545 41.6208 107.611 43.3466 105.178 43.3466C104.598 43.3696 104.02 43.2684 103.483 43.0491C102.946 42.8291 102.462 42.4971 102.065 42.0732L100.225 43.9132C101.726 45.3008 103.114 45.8091 105.292 45.8091C109.112 45.8091 111.434 43.2623 111.434 39.7517M123.902 31.497H117.451C117.428 30.8269 117.554 30.1592 117.819 29.5435C118.058 28.9885 118.458 28.5193 118.969 28.1957C119.479 27.873 120.075 27.7112 120.678 27.7327C121.275 27.712 121.864 27.8737 122.367 28.1957C122.87 28.5177 123.262 28.9854 123.493 29.5359C123.774 30.1507 123.913 30.8216 123.902 31.497ZM126.761 33.5064V32.2338C126.761 28.1551 124.523 25.3261 120.675 25.3261C116.995 25.3261 114.591 28.0156 114.591 32.6562C114.591 38.1172 117.451 40.0162 121.043 40.0162C123.56 40.0162 124.947 39.2549 126.419 37.7829L124.579 36.0571C123.56 37.0768 122.713 37.5291 121.098 37.5291C118.75 37.5291 117.451 35.9728 117.451 33.5103L126.761 33.5064ZM137.695 25.4879V27.9489H134.243C133.083 27.9489 132.686 28.5162 132.686 29.6202V39.836H129.801V29.4508C129.801 27.3271 130.99 25.4871 133.735 25.4871L137.695 25.4879Z" fill="#434245"/>
<path d="M11.7944 32.535C10.603 32.5327 9.46143 32.0589 8.61963 31.2164C7.77707 30.3746 7.30327 29.233 7.30097 28.0416V0H0V28.0416C0.00383333 31.1681 1.24813 34.1665 3.45843 36.3776C5.6695 38.5886 8.66793 39.8322 11.7944 39.836H23.5704V32.535H11.7944Z" fill="#434245"/>
</g>
</g>
<defs>
<clipPath id="clip0_260_5977">
<rect width="138" height="46" fill="white"/>
</clipPath>
</defs>
</svg>
