<svg width="633" height="659" viewBox="0 0 633 659" fill="none" xmlns="http://www.w3.org/2000/svg">
  <defs>
    <linearGradient id="panelBg" x1="316.5" y1="0" x2="316.5" y2="659" gradientUnits="userSpaceOnUse">
      <stop stop-color="#FAF8F9"/>
      <stop offset="0.58" stop-color="#F4F1F3"/>
      <stop offset="1" stop-color="#F0EEF0"/>
    </linearGradient>
    <radialGradient id="wash" cx="0" cy="0" r="1" gradientUnits="userSpaceOnUse" gradientTransform="translate(316 278) rotate(90) scale(280 380)">
      <stop stop-color="#F9DDE8" stop-opacity="0.55"/>
      <stop offset="1" stop-color="#F9DDE8" stop-opacity="0"/>
    </radialGradient>
    <linearGradient id="divider" x1="22" y1="333.5" x2="611" y2="333.5" gradientUnits="userSpaceOnUse">
      <stop stop-color="#F5B8CF" stop-opacity="0"/>
      <stop offset="0.5" stop-color="#F1A6C4"/>
      <stop offset="1" stop-color="#F5B8CF" stop-opacity="0"/>
    </linearGradient>
    <filter id="softShadow" x="0" y="0" width="633" height="659" filterUnits="userSpaceOnUse" color-interpolation-filters="sRGB">
      <feFlood flood-opacity="0" result="BackgroundImageFix"/>
      <feColorMatrix in="SourceAlpha" type="matrix" values="0 0 0 0 0 0 0 0 0 0 0 0 0 0 0 0 0 0 127 0" result="hardAlpha"/>
      <feOffset dy="18"/>
      <feGaussianBlur stdDeviation="22"/>
      <feColorMatrix type="matrix" values="0 0 0 0 0.0666667 0 0 0 0 0.0470588 0 0 0 0 0.0588235 0 0 0 0.12 0"/>
      <feBlend mode="normal" in2="BackgroundImageFix" result="effect1_dropShadow_hero"/>
      <feBlend mode="normal" in="SourceGraphic" in2="effect1_dropShadow_hero" result="shape"/>
    </filter>
  </defs>

  <g filter="url(#softShadow)">
    <rect x="22" y="14" width="589" height="603" rx="24" fill="url(#panelBg)"/>
  </g>

  <rect x="22" y="14" width="589" height="603" rx="24" fill="url(#wash)"/>
  <line x1="22" y1="333.5" x2="611" y2="333.5" stroke="url(#divider)"/>

  <rect x="288" y="277" width="57" height="69" rx="11" fill="#F7D4E2" stroke="#EAB0C9"/>
  <rect x="303" y="306" width="5" height="25" rx="2.5" fill="#E91E63"/>
  <rect x="314" y="297" width="5" height="42" rx="2.5" fill="#E91E63"/>
  <rect x="325" y="311" width="5" height="18" rx="2.5" fill="#E91E63"/>

  <rect x="75" y="520" width="483" height="48" rx="8" fill="#262424"/>
  <rect x="95" y="538" width="7" height="22" rx="2" fill="#E91E63"/>
  <rect x="106" y="538" width="7" height="22" rx="2" fill="#E91E63"/>
  <rect x="117" y="538" width="7" height="22" rx="2" fill="#E91E63"/>
  <rect x="128" y="538" width="7" height="22" rx="2" fill="#E91E63"/>
  <rect x="139" y="538" width="7" height="22" rx="2" fill="#E91E63"/>
  <rect x="150" y="538" width="7" height="22" rx="2" fill="#E91E63"/>
  <rect x="161" y="538" width="7" height="22" rx="2" fill="#E91E63"/>
  <rect x="172" y="538" width="7" height="22" rx="2" fill="#E91E63"/>
  <rect x="184" y="543" width="104" height="12" rx="6" fill="#353131"/>
  <rect x="459" y="541" width="48" height="9" rx="4.5" fill="#3A3838"/>
  <rect x="517" y="541" width="44" height="9" rx="4.5" fill="#3A3838"/>

  <rect x="75" y="585" width="483" height="122" rx="8" fill="#262424"/>
  <rect x="92" y="601" width="72" height="28" rx="14" fill="none" stroke="#E91E63"/>
  <rect x="172" y="601" width="83" height="28" rx="14" fill="none" stroke="#4A4747"/>
  <rect x="264" y="601" width="112" height="28" rx="14" fill="none" stroke="#4A4747"/>
  <rect x="92" y="649" width="362" height="14" rx="7" fill="#3B3838"/>
  <rect x="92" y="669" width="244" height="10" rx="5" fill="#343232"/>
  <rect x="92" y="691" width="68" height="9" rx="4.5" fill="#343232"/>
  <rect x="168" y="691" width="90" height="9" rx="4.5" fill="#343232"/>
</svg>
