<svg width="1432" height="86" viewBox="0 0 1432 86" fill="none" xmlns="http://www.w3.org/2000/svg">
<rect x="0.5" y="0.5" width="1431" height="84.9136" stroke="#E6E6E6"/>
<path d="M16.5 1V84.9136" stroke="#E6E6E6"/>
<path d="M32.3977 1V84.9136" stroke="#E6E6E6"/>
<path d="M48.2954 1V84.9136" stroke="#E6E6E6"/>
<path d="M64.1931 1V84.9136" stroke="#E6E6E6"/>
<path d="M80.0908 1V84.9136" stroke="#E6E6E6"/>
<path d="M95.9885 1V84.9136" stroke="#E6E6E6"/>
<path d="M111.886 1V84.9136" stroke="#E6E6E6"/>
<path d="M127.784 1V84.9136" stroke="#E6E6E6"/>
<path d="M143.682 1V84.9136" stroke="#E6E6E6"/>
<path d="M159.58 1V84.9136" stroke="#E6E6E6"/>
<path d="M175.477 1V84.9136" stroke="#E6E6E6"/>
<path d="M191.375 1V84.9136" stroke="#E6E6E6"/>
<path d="M207.273 1V84.9136" stroke="#E6E6E6"/>
<path d="M223.17 1V84.9136" stroke="#E6E6E6"/>
<path d="M239.068 1V84.9136" stroke="#E6E6E6"/>
<path d="M254.966 1V84.9136" stroke="#E6E6E6"/>
<path d="M270.864 1V84.9136" stroke="#E6E6E6"/>
<path d="M286.761 1V84.9136" stroke="#E6E6E6"/>
<path d="M302.659 1V84.9136" stroke="#E6E6E6"/>
<path d="M318.557 1V84.9136" stroke="#E6E6E6"/>
<path d="M334.455 1V84.9136" stroke="#E6E6E6"/>
<path d="M350.352 1V84.9136" stroke="#E6E6E6"/>
<path d="M366.25 1V84.9136" stroke="#E6E6E6"/>
<path d="M382.148 1V84.9136" stroke="#E6E6E6"/>
<path d="M398.045 1V84.9136" stroke="#E6E6E6"/>
<path d="M413.943 1V84.9136" stroke="#E6E6E6"/>
<path d="M429.841 1V84.9136" stroke="#E6E6E6"/>
<path d="M445.739 1V84.9136" stroke="#E6E6E6"/>
<path d="M461.636 1V84.9136" stroke="#E6E6E6"/>
<path d="M477.534 1V84.9136" stroke="#E6E6E6"/>
<path d="M493.432 1V84.9136" stroke="#E6E6E6"/>
<path d="M509.33 1V84.9136" stroke="#E6E6E6"/>
<path d="M525.227 1V84.9136" stroke="#E6E6E6"/>
<path d="M541.125 1V84.9136" stroke="#E6E6E6"/>
<path d="M557.023 1V84.9136" stroke="#E6E6E6"/>
<path d="M572.92 1V84.9136" stroke="#E6E6E6"/>
<path d="M588.818 1V84.9136" stroke="#E6E6E6"/>
<path d="M604.716 1V84.9136" stroke="#E6E6E6"/>
<path d="M620.614 1V84.9136" stroke="#E6E6E6"/>
<path d="M636.511 1V84.9136" stroke="#E6E6E6"/>
<path d="M652.409 1V84.9136" stroke="#E6E6E6"/>
<path d="M668.307 1V84.9136" stroke="#E6E6E6"/>
<path d="M684.204 1V84.9136" stroke="#E6E6E6"/>
<path d="M700.102 1V84.9136" stroke="#E6E6E6"/>
<path d="M716 1V84.9136" stroke="#E6E6E6"/>
<path d="M731.897 1V84.9136" stroke="#E6E6E6"/>
<path d="M747.795 1V84.9136" stroke="#E6E6E6"/>
<path d="M763.693 1V84.9136" stroke="#E6E6E6"/>
<path d="M779.591 1V84.9136" stroke="#E6E6E6"/>
<path d="M795.488 1V84.9136" stroke="#E6E6E6"/>
<path d="M811.386 1V84.9136" stroke="#E6E6E6"/>
<path d="M827.284 1V84.9136" stroke="#E6E6E6"/>
<path d="M843.181 1V84.9136" stroke="#E6E6E6"/>
<path d="M859.079 1V84.9136" stroke="#E6E6E6"/>
<path d="M874.977 1V84.9136" stroke="#E6E6E6"/>
<path d="M890.875 1V84.9136" stroke="#E6E6E6"/>
<path d="M906.772 1V84.9136" stroke="#E6E6E6"/>
<path d="M922.67 1V84.9136" stroke="#E6E6E6"/>
<path d="M938.568 1V84.9136" stroke="#E6E6E6"/>
<path d="M954.465 1V84.9136" stroke="#E6E6E6"/>
<path d="M970.363 1V84.9136" stroke="#E6E6E6"/>
<path d="M986.261 1V84.9136" stroke="#E6E6E6"/>
<path d="M1002.16 1V84.9136" stroke="#E6E6E6"/>
<path d="M1018.06 1V84.9136" stroke="#E6E6E6"/>
<path d="M1033.95 1V84.9136" stroke="#E6E6E6"/>
<path d="M1049.85 1V84.9136" stroke="#E6E6E6"/>
<path d="M1065.75 1V84.9136" stroke="#E6E6E6"/>
<path d="M1081.65 1V84.9136" stroke="#E6E6E6"/>
<path d="M1097.54 1V84.9136" stroke="#E6E6E6"/>
<path d="M1113.44 1V84.9136" stroke="#E6E6E6"/>
<path d="M1129.34 1V84.9136" stroke="#E6E6E6"/>
<path d="M1145.24 1V84.9136" stroke="#E6E6E6"/>
<path d="M1161.14 1V84.9136" stroke="#E6E6E6"/>
<path d="M1177.03 1V84.9136" stroke="#E6E6E6"/>
<path d="M1192.93 1V84.9136" stroke="#E6E6E6"/>
<path d="M1208.83 1V84.9136" stroke="#E6E6E6"/>
<path d="M1224.73 1V84.9136" stroke="#E6E6E6"/>
<path d="M1240.62 1V84.9136" stroke="#E6E6E6"/>
<path d="M1256.52 1V84.9136" stroke="#E6E6E6"/>
<path d="M1272.42 1V84.9136" stroke="#E6E6E6"/>
<path d="M1288.32 1V84.9136" stroke="#E6E6E6"/>
<path d="M1304.21 1V84.9136" stroke="#E6E6E6"/>
<path d="M1320.11 1V84.9136" stroke="#E6E6E6"/>
<path d="M1336.01 1V84.9136" stroke="#E6E6E6"/>
<path d="M1351.91 1V84.9136" stroke="#E6E6E6"/>
<path d="M1367.81 1V84.9136" stroke="#E6E6E6"/>
<path d="M1383.7 1V84.9136" stroke="#E6E6E6"/>
<path d="M1399.6 1V84.9136" stroke="#E6E6E6"/>
<path d="M1415.5 1V84.9136" stroke="#E6E6E6"/>
</svg>
