<svg width="147" height="32" viewBox="0 0 147 32" fill="none" xmlns="http://www.w3.org/2000/svg">
<g clip-path="url(#clip0_260_4911)">
<path d="M74.2383 8.37589C76.98 8.37589 76.98 8.37589 77.5609 8.82371C77.6718 9.03168 77.7827 9.23964 77.897 9.45391C78.0276 9.68519 78.1582 9.91648 78.2927 10.1548C78.4207 10.4049 78.5486 10.6551 78.6804 10.9128C78.8207 11.1682 78.962 11.423 79.1044 11.6771C79.3904 12.1895 79.6716 12.7043 79.9495 13.2213C80.5284 14.2768 81.1619 15.2926 81.8045 16.3088C82.0062 16.6328 82.2077 16.9569 82.4092 17.2811C82.7034 17.753 83.0026 18.2194 83.3071 18.6846C83.3767 15.2827 83.4463 11.8809 83.5181 8.37589C84.3532 8.37589 85.1884 8.37589 86.0489 8.37589C86.0489 13.337 86.0489 18.298 86.0489 23.4094C83.3071 23.4094 83.3071 23.4094 82.597 22.698C82.4105 22.3682 82.2347 22.032 82.0681 21.6913C81.8628 21.3192 81.6571 20.9472 81.451 20.5756C81.3443 20.3753 81.2375 20.1751 81.1276 19.9688C80.489 18.8056 79.7765 17.6889 79.0759 16.5638C78.8094 16.1306 78.5432 15.6972 78.2776 15.2635C78.1645 15.0791 78.0514 14.8948 77.9348 14.7048C77.6118 14.1731 77.2959 13.6369 76.98 13.1007C76.9104 16.5026 76.8408 19.9045 76.7691 23.4094C75.9339 23.4094 75.0988 23.4094 74.2383 23.4094C74.2383 18.4484 74.2383 13.4873 74.2383 8.37589Z" fill="black"/>
<path d="M39.4388 8.37589C42.1806 8.37589 42.1806 8.37589 42.7615 8.82371C42.8724 9.03168 42.9833 9.23964 43.0975 9.45391C43.2281 9.68519 43.3587 9.91648 43.4933 10.1548C43.6212 10.4049 43.7492 10.6551 43.881 10.9128C44.0213 11.1682 44.1626 11.423 44.305 11.6771C44.591 12.1895 44.8722 12.7043 45.15 13.2213C45.729 14.2768 46.3624 15.2926 47.005 16.3088C47.2067 16.6328 47.4083 16.9569 47.6097 17.2811C47.904 17.753 48.2031 18.2194 48.5077 18.6846C48.5773 15.2827 48.6469 11.8809 48.7186 8.37589C49.5538 8.37589 50.389 8.37589 51.2495 8.37589C51.2495 13.337 51.2495 18.298 51.2495 23.4094C48.5077 23.4094 48.5077 23.4094 47.7976 22.698C47.6111 22.3682 47.4353 22.032 47.2686 21.6913C47.0634 21.3192 46.8577 20.9472 46.6516 20.5756C46.5448 20.3753 46.4381 20.1751 46.3281 19.9688C45.6896 18.8056 44.9771 17.6889 44.2765 16.5638C44.0099 16.1306 43.7438 15.6972 43.4781 15.2635C43.365 15.0791 43.2519 14.8948 43.1354 14.7048C42.8124 14.1731 42.4965 13.6369 42.1806 13.1007C42.111 16.5026 42.0414 19.9045 41.9697 23.4094C41.1345 23.4094 40.2993 23.4094 39.4388 23.4094C39.4388 18.4484 39.4388 13.4873 39.4388 8.37589Z" fill="black"/>
<path d="M121.692 8.37589C122.527 8.37589 123.362 8.37589 124.222 8.37589C124.222 10.4312 124.222 12.4865 124.222 14.6041C126.45 14.6041 128.677 14.6041 130.971 14.6041C130.971 12.5488 130.971 10.4935 130.971 8.37589C131.807 8.37589 132.642 8.37589 133.502 8.37589C133.502 13.337 133.502 18.298 133.502 23.4094C132.597 23.4094 131.693 23.4094 130.761 23.4094C130.761 21.2124 130.761 19.0153 130.761 16.7517C128.603 16.7517 126.445 16.7517 124.222 16.7517C124.222 18.9488 124.222 21.1458 124.222 23.4094C123.387 23.4094 122.552 23.4094 121.692 23.4094C121.692 18.4484 121.692 13.4873 121.692 8.37589Z" fill="black"/>
<path d="M116.324 8.71812C117.412 9.35381 118.288 10.4017 118.739 11.5973C118.739 12.0226 118.739 12.4478 118.739 12.8859C117.904 12.8859 117.069 12.8859 116.208 12.8859C116.156 12.691 116.104 12.4961 116.05 12.2953C115.726 11.4384 115.331 10.9357 114.521 10.5235C112.785 10.3172 112.785 10.3172 111.239 10.9799C109.621 12.9226 109.718 15.1922 109.881 17.6107C110.011 18.312 110.201 18.9073 110.514 19.5436C110.61 19.7474 110.705 19.9511 110.804 20.1611C111.225 20.7226 111.577 20.9499 112.201 21.2617C112.92 21.3633 112.92 21.3633 113.677 21.3423C113.93 21.3439 114.182 21.3456 114.442 21.3473C115.227 21.2529 115.622 21.1612 116.208 20.6175C116.382 19.8852 116.382 19.8852 116.38 19.0738C116.393 18.591 116.406 18.1082 116.419 17.6107C115.375 17.6107 114.331 17.6107 113.256 17.6107C113.256 16.9729 113.256 16.335 113.256 15.6779C115.135 15.6779 117.014 15.6779 118.95 15.6779C118.98 16.6081 119.011 17.5383 119.042 18.4966C119.056 18.7876 119.069 19.0786 119.083 19.3785C119.112 21.2316 119.112 21.2316 118.648 21.9324C118.273 22.2679 117.91 22.5204 117.474 22.7651C117.313 22.8686 117.152 22.9722 116.987 23.0789C115.251 23.8379 113.246 23.9317 111.411 23.4824C109.586 22.7384 108.378 21.4378 107.542 19.6569C106.714 17.3152 106.747 13.8858 107.746 11.6233C107.824 11.473 107.902 11.3227 107.983 11.1678C108.105 10.933 108.227 10.6983 108.352 10.4564C110.403 7.96128 113.405 7.50276 116.324 8.71812Z" fill="black"/>
<path d="M62.9654 8.71812C64.0526 9.35381 64.929 10.4017 65.3801 11.5973C65.3801 12.0226 65.3801 12.4478 65.3801 12.8859C64.5449 12.8859 63.7097 12.8859 62.8492 12.8859C62.797 12.691 62.7448 12.4961 62.691 12.2953C62.3674 11.4384 61.9716 10.9357 61.162 10.5235C59.4262 10.3172 59.4262 10.3172 57.8798 10.9799C56.2623 12.9226 56.3586 15.1922 56.5221 17.6107C56.6518 18.312 56.8416 18.9073 57.1548 19.5436C57.2505 19.7474 57.3462 19.9511 57.4448 20.1611C57.8664 20.7226 58.2176 20.9499 58.842 21.2617C59.5609 21.3633 59.5609 21.3633 60.3184 21.3423C60.5707 21.3439 60.823 21.3456 61.0829 21.3473C61.8683 21.2529 62.2632 21.1612 62.8492 20.6175C63.0228 19.8852 63.0228 19.8852 63.0206 19.0738C63.0336 18.591 63.0467 18.1082 63.0601 17.6107C62.0161 17.6107 60.9722 17.6107 59.8966 17.6107C59.8966 16.9729 59.8966 16.335 59.8966 15.6779C61.7757 15.6779 63.6549 15.6779 65.591 15.6779C65.6214 16.6081 65.6519 17.5383 65.6832 18.4966C65.6967 18.7876 65.7101 19.0786 65.724 19.3785C65.7534 21.2316 65.7534 21.2316 65.2887 21.9324C64.9137 22.2679 64.5512 22.5204 64.1146 22.7651C63.954 22.8686 63.7933 22.9722 63.6277 23.0789C61.8916 23.8379 59.8872 23.9317 58.052 23.4824C56.227 22.7384 55.0194 21.4378 54.1832 19.6569C53.3551 17.3152 53.3884 13.8858 54.3867 11.6233C54.465 11.473 54.5433 11.3227 54.624 11.1678C54.7458 10.933 54.8676 10.6983 54.993 10.4564C57.0444 7.96128 60.0455 7.50276 62.9654 8.71812Z" fill="black"/>
<path d="M5.90503 9.44971C7.1578 9.44971 8.41057 9.44971 9.7013 9.44971C9.7013 16.8913 9.7013 24.3329 9.7013 32C8.44853 32 7.19576 32 5.90503 32C5.90503 24.5584 5.90503 17.1168 5.90503 9.44971Z" fill="#E91E63"/>
<path d="M17.9268 4.72485C19.1795 4.72485 20.4323 4.72485 21.723 4.72485C21.723 12.1665 21.723 19.6081 21.723 27.2752C20.4703 27.2752 19.2175 27.2752 17.9268 27.2752C17.9268 19.8336 17.9268 12.392 17.9268 4.72485Z" fill="#E91E63"/>
<path d="M96.9203 8.7165C97.8933 9.28763 98.6238 10.1473 99.1249 11.1678C99.1334 11.6689 99.134 12.1702 99.1249 12.6712C98.3593 12.6712 97.5937 12.6712 96.8049 12.6712C96.5269 12.021 96.5269 12.021 96.2488 11.3709C95.8644 10.8123 95.5458 10.7091 94.9068 10.5235C93.7726 10.3659 92.8832 10.3224 91.9146 10.9799C91.4592 11.7155 91.3581 12.0341 91.5323 12.886C92.489 14.1169 93.6632 14.4091 95.0728 14.8679C96.7396 15.4427 98.1232 16.3159 99.1249 17.8256C99.4912 18.9447 99.5627 20.0495 99.1199 21.1578C98.382 22.4115 97.5398 23.0026 96.1722 23.4095C94.0323 23.9238 92.1256 23.6761 90.2142 22.5907C88.6951 21.3601 88.6951 21.3601 88.4676 20.3197C88.4153 19.8481 88.3899 19.3735 88.3688 18.8994C89.204 18.8994 90.0391 18.8994 90.8996 18.8994C91.0301 19.3258 91.1605 19.7523 91.2909 20.1787C91.6277 20.7908 91.9614 20.9754 92.5869 21.2618C93.2648 21.3552 93.2648 21.3552 93.9709 21.3289C94.3237 21.3277 94.3237 21.3277 94.6835 21.3264C95.3077 21.2639 95.6578 21.1874 96.1722 20.8323C96.6669 20.0767 96.7163 19.789 96.594 18.8994C95.7719 17.8505 94.8847 17.497 93.6809 17.0739C91.7829 16.3967 90.1979 15.6581 89.0015 13.9598C88.6488 12.8823 88.6015 11.7832 88.9372 10.6905C90.4473 7.73456 94.2239 7.60053 96.9203 8.7165Z" fill="black"/>
<path d="M27.8394 8.37589C31.0409 8.37589 34.2424 8.37589 37.5409 8.37589C37.5409 9.08461 37.5409 9.79333 37.5409 10.5235C35.1746 10.5235 32.8083 10.5235 30.3702 10.5235C30.3702 11.8701 30.3702 13.2167 30.3702 14.6041C32.3886 14.6041 34.4069 14.6041 36.4864 14.6041C36.4864 15.3128 36.4864 16.0215 36.4864 16.7517C34.4681 16.7517 32.4497 16.7517 30.3702 16.7517C30.3702 18.24 30.3702 19.7284 30.3702 21.2618C32.7365 21.2618 35.1029 21.2618 37.5409 21.2618C37.5409 21.9705 37.5409 22.6792 37.5409 23.4094C34.3394 23.4094 31.1379 23.4094 27.8394 23.4094C27.8394 18.4484 27.8394 13.4873 27.8394 8.37589Z" fill="black"/>
<path d="M0 4.72485C1.18317 4.72485 2.36634 4.72485 3.58537 4.72485C3.58537 12.1665 3.58537 19.6081 3.58537 27.2752C2.40219 27.2752 1.21902 27.2752 0 27.2752C0 19.8336 0 12.392 0 4.72485Z" fill="#E91E63"/>
<path d="M12.0215 0C13.2047 0 14.3878 0 15.6069 0C15.6069 7.44161 15.6069 14.8832 15.6069 22.5503C14.4237 22.5503 13.2405 22.5503 12.0215 22.5503C12.0215 15.1087 12.0215 7.66712 12.0215 0Z" fill="#E91E63"/>
<path d="M134.978 8.37589C138.876 8.37589 142.773 8.37589 146.789 8.37589C146.789 9.08461 146.789 9.79333 146.789 10.5235C145.258 10.5235 143.727 10.5235 142.149 10.5235C142.149 14.7759 142.149 19.0282 142.149 23.4094C141.314 23.4094 140.479 23.4094 139.618 23.4094C139.618 19.1571 139.618 14.9047 139.618 10.5235C138.087 10.5235 136.556 10.5235 134.978 10.5235C134.978 9.81481 134.978 9.10609 134.978 8.37589Z" fill="black"/>
<path d="M101.867 8.37589C102.702 8.37589 103.537 8.37589 104.398 8.37589C104.398 13.337 104.398 18.298 104.398 23.4094C103.562 23.4094 102.727 23.4094 101.867 23.4094C101.867 18.4484 101.867 13.4873 101.867 8.37589Z" fill="black"/>
<path d="M68.5439 8.37589C69.3791 8.37589 70.2143 8.37589 71.0748 8.37589C71.0748 13.337 71.0748 18.298 71.0748 23.4094C70.2396 23.4094 69.4044 23.4094 68.5439 23.4094C68.5439 18.4484 68.5439 13.4873 68.5439 8.37589Z" fill="black"/>
</g>
<defs>
<clipPath id="clip0_260_4911">
<rect width="147" height="32" fill="white"/>
</clipPath>
</defs>
</svg>
